<svg width="172" height="38" viewBox="0 0 172 38" fill="none" xmlns="http://www.w3.org/2000/svg">
<g clip-path="url(#clip0_2137_369)">
<path d="M145.551 7.03336C146.111 6.99373 146.682 7.06308 147.233 7.24139C147.813 7.42961 148.384 7.7367 148.914 8.18247C149.475 8.64806 150.006 9.27215 150.456 10.0349C150.947 10.8571 151.347 11.8378 151.648 12.987C151.968 14.2153 152.128 15.5229 152.138 16.8801C152.138 18.2967 151.988 19.7231 151.668 21.1199C151.347 22.5464 150.877 23.8936 150.266 25.1022C149.655 26.3206 148.925 27.3707 148.114 28.2127C148.674 27.1329 149.145 25.9541 149.535 24.696C149.916 23.4479 150.196 22.1601 150.366 20.8425C150.536 19.5646 150.596 18.2867 150.556 17.0386C150.516 15.8399 150.376 14.6908 150.146 13.6011C149.926 12.5709 149.625 11.6595 149.275 10.8571C148.945 10.1043 148.564 9.46037 148.144 8.92543C147.753 8.42022 147.323 8.00416 146.882 7.68717C146.462 7.38007 146.021 7.16214 145.571 7.02345" fill="#FEC526"/>
<path d="M147.974 3.77424C148.785 3.61574 149.605 3.57612 150.436 3.66527C151.327 3.76433 152.218 4.0318 153.089 4.45776C154.04 4.93326 154.961 5.60688 155.812 6.49843C156.743 7.47914 157.594 8.72732 158.285 10.2529C159.036 11.9171 159.546 13.7596 159.797 15.7211C160.057 17.8113 160.017 19.9807 159.667 22.1006C159.306 24.2998 158.635 26.39 157.684 28.2623C156.743 30.1246 155.552 31.6997 154.191 32.9082C155.051 31.2737 155.752 29.4609 156.263 27.5193C156.763 25.6173 157.074 23.6361 157.194 21.6449C157.304 19.7331 157.224 17.8509 156.964 16.048C156.723 14.354 156.313 12.7492 155.762 11.293C155.252 9.93587 154.651 8.76694 153.97 7.78623C153.35 6.87487 152.669 6.1319 151.968 5.54744C151.307 5.0026 150.627 4.58654 149.936 4.27945C149.285 4.00208 148.634 3.83368 147.984 3.75443" fill="#FEC526"/>
<path d="M150.957 0.574538C152.048 0.247635 153.179 0.0594183 154.341 0.00988752C155.622 -0.0396432 156.943 0.0792306 158.265 0.406134C159.736 0.772661 161.238 1.38684 162.69 2.30811C164.322 3.33835 165.893 4.72522 167.295 6.53804C168.867 8.5688 170.098 10.9364 170.909 13.5516C171.79 16.4046 172.15 19.4458 171.93 22.4969C171.71 25.6965 170.869 28.7476 169.467 31.4619C168.076 34.1663 166.194 36.3853 163.951 37.9901C165.213 35.6621 166.154 33.037 166.734 30.2137C167.295 27.4697 167.505 24.6366 167.345 21.8133C167.205 19.1585 166.744 16.5928 165.993 14.1955C165.303 11.9864 164.382 9.96557 163.27 8.18246C162.259 6.55785 161.148 5.23043 159.977 4.15066C158.916 3.17986 157.814 2.41708 156.713 1.86234C155.702 1.34722 154.681 1.0005 153.68 0.792474C152.759 0.604257 151.838 0.525007 150.947 0.564632" fill="#FEC526"/>
<path d="M0 5.36911V8.97495H9.74076V34.513H13.7752V8.97495H23.556V5.36911H0Z" fill="#FEC526"/>
<path d="M28.8521 30.9072V21.2784H44.4894V17.6726H28.8521V8.97495H45.5505V5.36911H24.8276V34.513H45.7407V30.9072H28.8521Z" fill="#FEC526"/>
<path d="M52.1477 30.9072V5.36911H48.1133V34.513H67.8551V30.9072H52.1477Z" fill="#FEC526"/>
<path d="M73.231 30.9072V21.2784H88.8683V17.6726H73.231V8.97495H89.9294V5.36911H69.2065V34.513H90.1196V30.9072H73.231Z" fill="#FEC526"/>
<path d="M111.773 5.3295L100.261 25.855H100.181L98.4786 5.3295H91.8413L94.4542 34.5229H101.752L118.451 5.3295H111.773Z" fill="white"/>
<path d="M122.575 0.0891418L119.402 4.10113H125.889L129.053 0.0891418H122.575Z" fill="white"/>
<path d="M136.831 12.5214H136.911L138.082 23.2398H130.454L136.831 12.5214ZM135.319 5.3295L119.632 30.6892L125.638 5.3295H119.161L112.244 34.5328H123.776L127.631 28.0344H138.643L139.334 34.5328H146.061L141.966 5.3295H135.319Z" fill="white"/>
</g>
<defs>
<clipPath id="clip0_2137_369">
<rect width="172" height="38" fill="white"/>
</clipPath>
</defs>
</svg>
